<?xml version="1.0" encoding="UTF-8"?>
<svg id="Capa_1" data-name="Capa 1" xmlns="http://www.w3.org/2000/svg" viewBox="0 0 197.13 197.13">
  <defs>
    <style>
      .cls-1 {
        fill: #fff;
      }

      .cls-2 {
        fill: #010101;
      }
    </style>
  </defs>
  <rect class="cls-1" width="197.13" height="197.13"/>
  <g>
    <rect class="cls-2" x="59.74" y="11.95" width="6.15" height="6.15"/>
    <rect class="cls-2" x="65.71" y="11.95" width="6.15" height="6.15"/>
    <rect class="cls-2" x="71.68" y="11.95" width="6.15" height="6.15"/>
    <rect class="cls-2" x="77.66" y="11.95" width="6.15" height="6.15"/>
    <rect class="cls-2" x="107.52" y="11.95" width="6.15" height="6.15"/>
    <rect class="cls-2" x="119.47" y="11.95" width="6.15" height="6.15"/>
    <rect class="cls-2" x="125.44" y="11.95" width="6.15" height="6.15"/>
    <rect class="cls-2" x="131.42" y="11.95" width="6.15" height="6.15"/>
    <rect class="cls-2" x="65.71" y="17.92" width="6.15" height="6.15"/>
    <rect class="cls-2" x="83.63" y="17.92" width="6.15" height="6.15"/>
    <rect class="cls-2" x="101.55" y="17.92" width="6.15" height="6.15"/>
    <rect class="cls-2" x="113.5" y="17.92" width="6.15" height="6.15"/>
    <rect class="cls-2" x="131.42" y="17.92" width="6.15" height="6.15"/>
    <rect class="cls-2" x="71.68" y="23.89" width="6.15" height="6.15"/>
    <rect class="cls-2" x="77.66" y="23.89" width="6.15" height="6.15"/>
    <rect class="cls-2" x="89.6" y="23.89" width="6.15" height="6.15"/>
    <rect class="cls-2" x="95.58" y="23.89" width="6.15" height="6.15"/>
    <rect class="cls-2" x="101.55" y="23.89" width="6.15" height="6.15"/>
    <rect class="cls-2" x="107.52" y="23.89" width="6.15" height="6.15"/>
    <rect class="cls-2" x="125.44" y="23.89" width="6.15" height="6.15"/>
    <rect class="cls-2" x="131.42" y="23.89" width="6.15" height="6.15"/>
    <rect class="cls-2" x="71.68" y="29.87" width="6.15" height="6.15"/>
    <rect class="cls-2" x="83.63" y="29.87" width="6.15" height="6.15"/>
    <rect class="cls-2" x="107.52" y="29.87" width="6.15" height="6.15"/>
    <rect class="cls-2" x="113.5" y="29.87" width="6.15" height="6.15"/>
    <rect class="cls-2" x="119.47" y="29.87" width="6.15" height="6.15"/>
    <rect class="cls-2" x="125.44" y="29.87" width="6.15" height="6.15"/>
    <rect class="cls-2" x="131.42" y="29.87" width="6.15" height="6.15"/>
    <rect class="cls-2" x="59.74" y="35.84" width="6.15" height="6.15"/>
    <rect class="cls-2" x="71.68" y="35.84" width="6.15" height="6.15"/>
    <rect class="cls-2" x="95.58" y="35.84" width="6.15" height="6.15"/>
    <rect class="cls-2" x="107.52" y="35.84" width="6.15" height="6.15"/>
    <rect class="cls-2" x="113.5" y="35.84" width="6.15" height="6.15"/>
    <rect class="cls-2" x="119.47" y="35.84" width="6.15" height="6.15"/>
    <rect class="cls-2" x="125.44" y="35.84" width="6.15" height="6.15"/>
    <rect class="cls-2" x="131.42" y="35.84" width="6.15" height="6.15"/>
    <rect class="cls-2" x="59.74" y="41.81" width="6.15" height="6.15"/>
    <rect class="cls-2" x="71.68" y="41.81" width="6.15" height="6.15"/>
    <rect class="cls-2" x="89.6" y="41.81" width="6.15" height="6.15"/>
    <rect class="cls-2" x="95.58" y="41.81" width="6.15" height="6.15"/>
    <rect class="cls-2" x="107.52" y="41.81" width="6.15" height="6.15"/>
    <rect class="cls-2" x="131.42" y="41.81" width="6.15" height="6.15"/>
    <rect class="cls-2" x="59.74" y="47.79" width="6.15" height="6.15"/>
    <rect class="cls-2" x="71.68" y="47.79" width="6.15" height="6.15"/>
    <rect class="cls-2" x="83.63" y="47.79" width="6.15" height="6.15"/>
    <rect class="cls-2" x="95.58" y="47.79" width="6.15" height="6.15"/>
    <rect class="cls-2" x="107.52" y="47.79" width="6.15" height="6.15"/>
    <rect class="cls-2" x="119.47" y="47.79" width="6.15" height="6.15"/>
    <rect class="cls-2" x="131.42" y="47.79" width="6.15" height="6.15"/>
    <rect class="cls-2" x="65.71" y="53.76" width="6.15" height="6.15"/>
    <rect class="cls-2" x="83.63" y="53.76" width="6.15" height="6.15"/>
    <rect class="cls-2" x="89.6" y="53.76" width="6.15" height="6.15"/>
    <rect class="cls-2" x="95.58" y="53.76" width="6.15" height="6.15"/>
    <rect class="cls-2" x="101.55" y="53.76" width="6.15" height="6.15"/>
    <rect class="cls-2" x="107.52" y="53.76" width="6.15" height="6.15"/>
    <rect class="cls-2" x="125.44" y="53.76" width="6.15" height="6.15"/>
    <rect class="cls-2" x="131.42" y="53.76" width="6.15" height="6.15"/>
    <rect class="cls-2" x="17.92" y="59.74" width="6.15" height="6.15"/>
    <rect class="cls-2" x="23.89" y="59.74" width="6.15" height="6.15"/>
    <rect class="cls-2" x="29.87" y="59.74" width="6.15" height="6.15"/>
    <rect class="cls-2" x="35.84" y="59.74" width="6.15" height="6.15"/>
    <rect class="cls-2" x="41.81" y="59.74" width="6.15" height="6.15"/>
    <rect class="cls-2" x="47.79" y="59.74" width="6.15" height="6.15"/>
    <rect class="cls-2" x="53.76" y="59.74" width="6.15" height="6.15"/>
    <rect class="cls-2" x="77.66" y="59.74" width="6.15" height="6.15"/>
    <rect class="cls-2" x="83.63" y="59.74" width="6.15" height="6.15"/>
    <rect class="cls-2" x="95.58" y="59.74" width="6.15" height="6.15"/>
    <rect class="cls-2" x="101.55" y="59.74" width="6.15" height="6.15"/>
    <rect class="cls-2" x="107.52" y="59.74" width="6.15" height="6.15"/>
    <rect class="cls-2" x="119.47" y="59.74" width="6.15" height="6.15"/>
    <rect class="cls-2" x="149.34" y="59.74" width="6.15" height="6.15"/>
    <rect class="cls-2" x="155.31" y="59.74" width="6.15" height="6.15"/>
    <rect class="cls-2" x="179.21" y="59.74" width="6.15" height="6.15"/>
    <rect class="cls-2" x="17.92" y="65.71" width="6.15" height="6.15"/>
    <rect class="cls-2" x="23.89" y="65.71" width="6.15" height="6.15"/>
    <rect class="cls-2" x="41.81" y="65.71" width="6.15" height="6.15"/>
    <rect class="cls-2" x="53.76" y="65.71" width="6.15" height="6.15"/>
    <rect class="cls-2" x="77.66" y="65.71" width="6.15" height="6.15"/>
    <rect class="cls-2" x="89.6" y="65.71" width="6.15" height="6.15"/>
    <rect class="cls-2" x="95.58" y="65.71" width="6.15" height="6.15"/>
    <rect class="cls-2" x="101.55" y="65.71" width="6.15" height="6.15"/>
    <rect class="cls-2" x="107.52" y="65.71" width="6.15" height="6.15"/>
    <rect class="cls-2" x="113.5" y="65.71" width="6.15" height="6.15"/>
    <rect class="cls-2" x="119.47" y="65.71" width="6.15" height="6.15"/>
    <rect class="cls-2" x="125.44" y="65.71" width="6.15" height="6.15"/>
    <rect class="cls-2" x="131.42" y="65.71" width="6.15" height="6.15"/>
    <rect class="cls-2" x="143.36" y="65.71" width="6.15" height="6.15"/>
    <rect class="cls-2" x="149.34" y="65.71" width="6.15" height="6.15"/>
    <rect class="cls-2" x="155.31" y="65.71" width="6.15" height="6.15"/>
    <rect class="cls-2" x="179.21" y="65.71" width="6.15" height="6.15"/>
    <rect class="cls-2" x="11.95" y="71.68" width="6.15" height="6.15"/>
    <rect class="cls-2" x="17.92" y="71.68" width="6.15" height="6.15"/>
    <rect class="cls-2" x="29.87" y="71.68" width="6.15" height="6.15"/>
    <rect class="cls-2" x="47.79" y="71.68" width="6.15" height="6.15"/>
    <rect class="cls-2" x="53.76" y="71.68" width="6.15" height="6.15"/>
    <rect class="cls-2" x="71.68" y="71.68" width="6.15" height="6.15"/>
    <rect class="cls-2" x="89.6" y="71.68" width="6.15" height="6.15"/>
    <rect class="cls-2" x="107.52" y="71.68" width="6.15" height="6.15"/>
    <rect class="cls-2" x="113.5" y="71.68" width="6.15" height="6.15"/>
    <rect class="cls-2" x="131.42" y="71.68" width="6.15" height="6.15"/>
    <rect class="cls-2" x="137.39" y="71.68" width="6.15" height="6.15"/>
    <rect class="cls-2" x="143.36" y="71.68" width="6.15" height="6.15"/>
    <rect class="cls-2" x="149.34" y="71.68" width="6.15" height="6.15"/>
    <rect class="cls-2" x="161.28" y="71.68" width="6.15" height="6.15"/>
    <rect class="cls-2" x="35.84" y="77.66" width="6.15" height="6.15"/>
    <rect class="cls-2" x="41.81" y="77.66" width="6.15" height="6.15"/>
    <rect class="cls-2" x="65.71" y="77.66" width="6.15" height="6.15"/>
    <rect class="cls-2" x="77.66" y="77.66" width="6.15" height="6.15"/>
    <rect class="cls-2" x="83.63" y="77.66" width="6.15" height="6.15"/>
    <rect class="cls-2" x="119.47" y="77.66" width="6.15" height="6.15"/>
    <rect class="cls-2" x="125.44" y="77.66" width="6.15" height="6.15"/>
    <rect class="cls-2" x="137.39" y="77.66" width="6.15" height="6.15"/>
    <rect class="cls-2" x="143.36" y="77.66" width="6.15" height="6.15"/>
    <rect class="cls-2" x="149.34" y="77.66" width="6.15" height="6.15"/>
    <rect class="cls-2" x="161.28" y="77.66" width="6.15" height="6.15"/>
    <rect class="cls-2" x="173.23" y="77.66" width="6.15" height="6.15"/>
    <rect class="cls-2" x="23.89" y="83.63" width="6.15" height="6.15"/>
    <rect class="cls-2" x="29.87" y="83.63" width="6.15" height="6.15"/>
    <rect class="cls-2" x="47.79" y="83.63" width="6.15" height="6.15"/>
    <rect class="cls-2" x="53.76" y="83.63" width="6.15" height="6.15"/>
    <rect class="cls-2" x="65.71" y="83.63" width="6.15" height="6.15"/>
    <rect class="cls-2" x="77.66" y="83.63" width="6.15" height="6.15"/>
    <rect class="cls-2" x="83.63" y="83.63" width="6.15" height="6.15"/>
    <rect class="cls-2" x="89.6" y="83.63" width="6.15" height="6.15"/>
    <rect class="cls-2" x="95.58" y="83.63" width="6.15" height="6.15"/>
    <rect class="cls-2" x="113.5" y="83.63" width="6.15" height="6.15"/>
    <rect class="cls-2" x="131.42" y="83.63" width="6.15" height="6.15"/>
    <rect class="cls-2" x="137.39" y="83.63" width="6.15" height="6.15"/>
    <rect class="cls-2" x="149.34" y="83.63" width="6.15" height="6.15"/>
    <rect class="cls-2" x="161.28" y="83.63" width="6.15" height="6.15"/>
    <rect class="cls-2" x="167.26" y="83.63" width="6.15" height="6.15"/>
    <rect class="cls-2" x="173.23" y="83.63" width="6.15" height="6.15"/>
    <rect class="cls-2" x="179.21" y="83.63" width="6.15" height="6.15"/>
    <rect class="cls-2" x="11.95" y="89.6" width="6.15" height="6.15"/>
    <rect class="cls-2" x="17.92" y="89.6" width="6.15" height="6.15"/>
    <rect class="cls-2" x="53.76" y="89.6" width="6.15" height="6.15"/>
    <rect class="cls-2" x="65.71" y="89.6" width="6.15" height="6.15"/>
    <rect class="cls-2" x="71.68" y="89.6" width="6.15" height="6.15"/>
    <rect class="cls-2" x="77.66" y="89.6" width="6.15" height="6.15"/>
    <rect class="cls-2" x="83.63" y="89.6" width="6.15" height="6.15"/>
    <rect class="cls-2" x="89.6" y="89.6" width="6.15" height="6.15"/>
    <rect class="cls-2" x="107.52" y="89.6" width="6.15" height="6.15"/>
    <rect class="cls-2" x="113.5" y="89.6" width="6.15" height="6.15"/>
    <rect class="cls-2" x="125.44" y="89.6" width="6.15" height="6.15"/>
    <rect class="cls-2" x="131.42" y="89.6" width="6.15" height="6.15"/>
    <rect class="cls-2" x="137.39" y="89.6" width="6.15" height="6.15"/>
    <rect class="cls-2" x="143.36" y="89.6" width="6.15" height="6.15"/>
    <rect class="cls-2" x="155.31" y="89.6" width="6.15" height="6.15"/>
    <rect class="cls-2" x="161.28" y="89.6" width="6.15" height="6.15"/>
    <rect class="cls-2" x="173.23" y="89.6" width="6.15" height="6.15"/>
    <rect class="cls-2" x="179.21" y="89.6" width="6.15" height="6.15"/>
    <rect class="cls-2" x="11.95" y="95.58" width="6.15" height="6.15"/>
    <rect class="cls-2" x="23.89" y="95.58" width="6.15" height="6.15"/>
    <rect class="cls-2" x="29.87" y="95.58" width="6.15" height="6.15"/>
    <rect class="cls-2" x="47.79" y="95.58" width="6.15" height="6.15"/>
    <rect class="cls-2" x="53.76" y="95.58" width="6.15" height="6.15"/>
    <rect class="cls-2" x="59.74" y="95.58" width="6.15" height="6.15"/>
    <rect class="cls-2" x="89.6" y="95.58" width="6.15" height="6.15"/>
    <rect class="cls-2" x="113.5" y="95.58" width="6.15" height="6.15"/>
    <rect class="cls-2" x="131.42" y="95.58" width="6.15" height="6.15"/>
    <rect class="cls-2" x="149.34" y="95.58" width="6.15" height="6.15"/>
    <rect class="cls-2" x="35.84" y="101.55" width="6.15" height="6.15"/>
    <rect class="cls-2" x="41.81" y="101.55" width="6.15" height="6.15"/>
    <rect class="cls-2" x="53.76" y="101.55" width="6.15" height="6.15"/>
    <rect class="cls-2" x="71.68" y="101.55" width="6.15" height="6.15"/>
    <rect class="cls-2" x="89.6" y="101.55" width="6.15" height="6.15"/>
    <rect class="cls-2" x="95.58" y="101.55" width="6.15" height="6.15"/>
    <rect class="cls-2" x="113.5" y="101.55" width="6.15" height="6.15"/>
    <rect class="cls-2" x="119.47" y="101.55" width="6.15" height="6.15"/>
    <rect class="cls-2" x="125.44" y="101.55" width="6.15" height="6.15"/>
    <rect class="cls-2" x="131.42" y="101.55" width="6.15" height="6.15"/>
    <rect class="cls-2" x="137.39" y="101.55" width="6.15" height="6.15"/>
    <rect class="cls-2" x="155.31" y="101.55" width="6.15" height="6.15"/>
    <rect class="cls-2" x="161.28" y="101.55" width="6.15" height="6.15"/>
    <rect class="cls-2" x="173.23" y="101.55" width="6.15" height="6.15"/>
    <rect class="cls-2" x="11.95" y="107.52" width="6.15" height="6.15"/>
    <rect class="cls-2" x="17.92" y="107.52" width="6.15" height="6.15"/>
    <rect class="cls-2" x="29.87" y="107.52" width="6.15" height="6.15"/>
    <rect class="cls-2" x="35.84" y="107.52" width="6.15" height="6.15"/>
    <rect class="cls-2" x="47.79" y="107.52" width="6.15" height="6.15"/>
    <rect class="cls-2" x="53.76" y="107.52" width="6.15" height="6.15"/>
    <rect class="cls-2" x="59.74" y="107.52" width="6.15" height="6.15"/>
    <rect class="cls-2" x="71.68" y="107.52" width="6.15" height="6.15"/>
    <rect class="cls-2" x="77.66" y="107.52" width="6.15" height="6.15"/>
    <rect class="cls-2" x="83.63" y="107.52" width="6.15" height="6.15"/>
    <rect class="cls-2" x="95.58" y="107.52" width="6.15" height="6.15"/>
    <rect class="cls-2" x="107.52" y="107.52" width="6.15" height="6.15"/>
    <rect class="cls-2" x="161.28" y="107.52" width="6.15" height="6.15"/>
    <rect class="cls-2" x="167.26" y="107.52" width="6.15" height="6.15"/>
    <rect class="cls-2" x="11.95" y="113.5" width="6.15" height="6.15"/>
    <rect class="cls-2" x="17.92" y="113.5" width="6.15" height="6.15"/>
    <rect class="cls-2" x="35.84" y="113.5" width="6.15" height="6.15"/>
    <rect class="cls-2" x="41.81" y="113.5" width="6.15" height="6.15"/>
    <rect class="cls-2" x="53.76" y="113.5" width="6.15" height="6.15"/>
    <rect class="cls-2" x="59.74" y="113.5" width="6.15" height="6.15"/>
    <rect class="cls-2" x="71.68" y="113.5" width="6.15" height="6.15"/>
    <rect class="cls-2" x="101.55" y="113.5" width="6.15" height="6.15"/>
    <rect class="cls-2" x="119.47" y="113.5" width="6.15" height="6.15"/>
    <rect class="cls-2" x="125.44" y="113.5" width="6.15" height="6.15"/>
    <rect class="cls-2" x="131.42" y="113.5" width="6.15" height="6.15"/>
    <rect class="cls-2" x="137.39" y="113.5" width="6.15" height="6.15"/>
    <rect class="cls-2" x="143.36" y="113.5" width="6.15" height="6.15"/>
    <rect class="cls-2" x="149.34" y="113.5" width="6.15" height="6.15"/>
    <rect class="cls-2" x="155.31" y="113.5" width="6.15" height="6.15"/>
    <rect class="cls-2" x="173.23" y="113.5" width="6.15" height="6.15"/>
    <rect class="cls-2" x="179.21" y="113.5" width="6.15" height="6.15"/>
    <rect class="cls-2" x="11.95" y="119.47" width="6.15" height="6.15"/>
    <rect class="cls-2" x="41.81" y="119.47" width="6.15" height="6.15"/>
    <rect class="cls-2" x="47.79" y="119.47" width="6.15" height="6.15"/>
    <rect class="cls-2" x="53.76" y="119.47" width="6.15" height="6.15"/>
    <rect class="cls-2" x="71.68" y="119.47" width="6.15" height="6.15"/>
    <rect class="cls-2" x="77.66" y="119.47" width="6.15" height="6.15"/>
    <rect class="cls-2" x="83.63" y="119.47" width="6.15" height="6.15"/>
    <rect class="cls-2" x="89.6" y="119.47" width="6.15" height="6.15"/>
    <rect class="cls-2" x="95.58" y="119.47" width="6.15" height="6.15"/>
    <rect class="cls-2" x="101.55" y="119.47" width="6.15" height="6.15"/>
    <rect class="cls-2" x="107.52" y="119.47" width="6.15" height="6.15"/>
    <rect class="cls-2" x="143.36" y="119.47" width="6.15" height="6.15"/>
    <rect class="cls-2" x="149.34" y="119.47" width="6.15" height="6.15"/>
    <rect class="cls-2" x="155.31" y="119.47" width="6.15" height="6.15"/>
    <rect class="cls-2" x="161.28" y="119.47" width="6.15" height="6.15"/>
    <rect class="cls-2" x="167.26" y="119.47" width="6.15" height="6.15"/>
    <rect class="cls-2" x="11.95" y="125.44" width="6.15" height="6.15"/>
    <rect class="cls-2" x="29.87" y="125.44" width="6.15" height="6.15"/>
    <rect class="cls-2" x="35.84" y="125.44" width="6.15" height="6.15"/>
    <rect class="cls-2" x="41.81" y="125.44" width="6.15" height="6.15"/>
    <rect class="cls-2" x="53.76" y="125.44" width="6.15" height="6.15"/>
    <rect class="cls-2" x="65.71" y="125.44" width="6.15" height="6.15"/>
    <rect class="cls-2" x="77.66" y="125.44" width="6.15" height="6.15"/>
    <rect class="cls-2" x="101.55" y="125.44" width="6.15" height="6.15"/>
    <rect class="cls-2" x="119.47" y="125.44" width="6.15" height="6.15"/>
    <rect class="cls-2" x="125.44" y="125.44" width="6.15" height="6.15"/>
    <rect class="cls-2" x="131.42" y="125.44" width="6.15" height="6.15"/>
    <rect class="cls-2" x="143.36" y="125.44" width="6.15" height="6.15"/>
    <rect class="cls-2" x="161.28" y="125.44" width="6.15" height="6.15"/>
    <rect class="cls-2" x="173.23" y="125.44" width="6.15" height="6.15"/>
    <rect class="cls-2" x="11.95" y="131.42" width="6.15" height="6.15"/>
    <rect class="cls-2" x="29.87" y="131.42" width="6.15" height="6.15"/>
    <rect class="cls-2" x="47.79" y="131.42" width="6.15" height="6.15"/>
    <rect class="cls-2" x="59.74" y="131.42" width="6.15" height="6.15"/>
    <rect class="cls-2" x="77.66" y="131.42" width="6.15" height="6.15"/>
    <rect class="cls-2" x="89.6" y="131.42" width="6.15" height="6.15"/>
    <rect class="cls-2" x="95.58" y="131.42" width="6.15" height="6.15"/>
    <rect class="cls-2" x="101.55" y="131.42" width="6.15" height="6.15"/>
    <rect class="cls-2" x="113.5" y="131.42" width="6.15" height="6.15"/>
    <rect class="cls-2" x="125.44" y="131.42" width="6.15" height="6.15"/>
    <rect class="cls-2" x="131.42" y="131.42" width="6.15" height="6.15"/>
    <rect class="cls-2" x="137.39" y="131.42" width="6.15" height="6.15"/>
    <rect class="cls-2" x="143.36" y="131.42" width="6.15" height="6.15"/>
    <rect class="cls-2" x="149.34" y="131.42" width="6.15" height="6.15"/>
    <rect class="cls-2" x="155.31" y="131.42" width="6.15" height="6.15"/>
    <rect class="cls-2" x="167.26" y="131.42" width="6.15" height="6.15"/>
    <rect class="cls-2" x="179.21" y="131.42" width="6.15" height="6.15"/>
    <rect class="cls-2" x="59.74" y="137.39" width="6.15" height="6.15"/>
    <rect class="cls-2" x="65.71" y="137.39" width="6.15" height="6.15"/>
    <rect class="cls-2" x="71.68" y="137.39" width="6.15" height="6.15"/>
    <rect class="cls-2" x="89.6" y="137.39" width="6.15" height="6.15"/>
    <rect class="cls-2" x="107.52" y="137.39" width="6.15" height="6.15"/>
    <rect class="cls-2" x="119.47" y="137.39" width="6.15" height="6.15"/>
    <rect class="cls-2" x="125.44" y="137.39" width="6.15" height="6.15"/>
    <rect class="cls-2" x="131.42" y="137.39" width="6.15" height="6.15"/>
    <rect class="cls-2" x="155.31" y="137.39" width="6.15" height="6.15"/>
    <rect class="cls-2" x="161.28" y="137.39" width="6.15" height="6.15"/>
    <rect class="cls-2" x="173.23" y="137.39" width="6.15" height="6.15"/>
    <rect class="cls-2" x="179.21" y="137.39" width="6.15" height="6.15"/>
    <rect class="cls-2" x="59.74" y="143.36" width="6.15" height="6.15"/>
    <rect class="cls-2" x="89.6" y="143.36" width="6.15" height="6.15"/>
    <rect class="cls-2" x="95.58" y="143.36" width="6.15" height="6.15"/>
    <rect class="cls-2" x="101.55" y="143.36" width="6.15" height="6.15"/>
    <rect class="cls-2" x="107.52" y="143.36" width="6.15" height="6.15"/>
    <rect class="cls-2" x="119.47" y="143.36" width="6.15" height="6.15"/>
    <rect class="cls-2" x="125.44" y="143.36" width="6.15" height="6.15"/>
    <rect class="cls-2" x="131.42" y="143.36" width="6.15" height="6.15"/>
    <rect class="cls-2" x="143.36" y="143.36" width="6.15" height="6.15"/>
    <rect class="cls-2" x="155.31" y="143.36" width="6.15" height="6.15"/>
    <rect class="cls-2" x="59.74" y="149.34" width="6.15" height="6.15"/>
    <rect class="cls-2" x="65.71" y="149.34" width="6.15" height="6.15"/>
    <rect class="cls-2" x="89.6" y="149.34" width="6.15" height="6.15"/>
    <rect class="cls-2" x="95.58" y="149.34" width="6.15" height="6.15"/>
    <rect class="cls-2" x="101.55" y="149.34" width="6.15" height="6.15"/>
    <rect class="cls-2" x="107.52" y="149.34" width="6.15" height="6.15"/>
    <rect class="cls-2" x="125.44" y="149.34" width="6.15" height="6.15"/>
    <rect class="cls-2" x="131.42" y="149.34" width="6.15" height="6.15"/>
    <rect class="cls-2" x="155.31" y="149.34" width="6.15" height="6.15"/>
    <rect class="cls-2" x="161.28" y="149.34" width="6.15" height="6.15"/>
    <rect class="cls-2" x="173.23" y="149.34" width="6.15" height="6.15"/>
    <rect class="cls-2" x="179.21" y="149.34" width="6.15" height="6.15"/>
    <rect class="cls-2" x="59.74" y="155.31" width="6.15" height="6.15"/>
    <rect class="cls-2" x="65.71" y="155.31" width="6.15" height="6.15"/>
    <rect class="cls-2" x="71.68" y="155.31" width="6.15" height="6.15"/>
    <rect class="cls-2" x="77.66" y="155.31" width="6.15" height="6.15"/>
    <rect class="cls-2" x="95.58" y="155.31" width="6.15" height="6.15"/>
    <rect class="cls-2" x="101.55" y="155.31" width="6.15" height="6.15"/>
    <rect class="cls-2" x="119.47" y="155.31" width="6.15" height="6.15"/>
    <rect class="cls-2" x="131.42" y="155.31" width="6.15" height="6.15"/>
    <rect class="cls-2" x="137.39" y="155.31" width="6.15" height="6.15"/>
    <rect class="cls-2" x="143.36" y="155.31" width="6.15" height="6.15"/>
    <rect class="cls-2" x="149.34" y="155.31" width="6.15" height="6.15"/>
    <rect class="cls-2" x="155.31" y="155.31" width="6.15" height="6.15"/>
    <rect class="cls-2" x="161.28" y="155.31" width="6.15" height="6.15"/>
    <rect class="cls-2" x="167.26" y="155.31" width="6.15" height="6.15"/>
    <rect class="cls-2" x="179.21" y="155.31" width="6.15" height="6.15"/>
    <rect class="cls-2" x="59.74" y="161.28" width="6.15" height="6.15"/>
    <rect class="cls-2" x="65.71" y="161.28" width="6.15" height="6.15"/>
    <rect class="cls-2" x="71.68" y="161.28" width="6.15" height="6.15"/>
    <rect class="cls-2" x="77.66" y="161.28" width="6.15" height="6.15"/>
    <rect class="cls-2" x="89.6" y="161.28" width="6.15" height="6.15"/>
    <rect class="cls-2" x="95.58" y="161.28" width="6.15" height="6.15"/>
    <rect class="cls-2" x="101.55" y="161.28" width="6.15" height="6.15"/>
    <rect class="cls-2" x="107.52" y="161.28" width="6.15" height="6.15"/>
    <rect class="cls-2" x="113.5" y="161.28" width="6.15" height="6.15"/>
    <rect class="cls-2" x="125.44" y="161.28" width="6.15" height="6.15"/>
    <rect class="cls-2" x="131.42" y="161.28" width="6.15" height="6.15"/>
    <rect class="cls-2" x="137.39" y="161.28" width="6.15" height="6.15"/>
    <rect class="cls-2" x="149.34" y="161.28" width="6.15" height="6.15"/>
    <rect class="cls-2" x="167.26" y="161.28" width="6.15" height="6.15"/>
    <rect class="cls-2" x="59.74" y="167.26" width="6.15" height="6.15"/>
    <rect class="cls-2" x="65.71" y="167.26" width="6.15" height="6.15"/>
    <rect class="cls-2" x="95.58" y="167.26" width="6.15" height="6.15"/>
    <rect class="cls-2" x="119.47" y="167.26" width="6.15" height="6.15"/>
    <rect class="cls-2" x="125.44" y="167.26" width="6.15" height="6.15"/>
    <rect class="cls-2" x="131.42" y="167.26" width="6.15" height="6.15"/>
    <rect class="cls-2" x="137.39" y="167.26" width="6.15" height="6.15"/>
    <rect class="cls-2" x="143.36" y="167.26" width="6.15" height="6.15"/>
    <rect class="cls-2" x="149.34" y="167.26" width="6.15" height="6.15"/>
    <rect class="cls-2" x="155.31" y="167.26" width="6.15" height="6.15"/>
    <rect class="cls-2" x="161.28" y="167.26" width="6.15" height="6.15"/>
    <rect class="cls-2" x="167.26" y="167.26" width="6.15" height="6.15"/>
    <rect class="cls-2" x="173.23" y="167.26" width="6.15" height="6.15"/>
    <rect class="cls-2" x="59.74" y="173.23" width="6.15" height="6.15"/>
    <rect class="cls-2" x="71.68" y="173.23" width="6.15" height="6.15"/>
    <rect class="cls-2" x="77.66" y="173.23" width="6.15" height="6.15"/>
    <rect class="cls-2" x="107.52" y="173.23" width="6.15" height="6.15"/>
    <rect class="cls-2" x="131.42" y="173.23" width="6.15" height="6.15"/>
    <rect class="cls-2" x="143.36" y="173.23" width="6.15" height="6.15"/>
    <rect class="cls-2" x="155.31" y="173.23" width="6.15" height="6.15"/>
    <rect class="cls-2" x="161.28" y="173.23" width="6.15" height="6.15"/>
    <rect class="cls-2" x="173.23" y="173.23" width="6.15" height="6.15"/>
    <rect class="cls-2" x="77.66" y="179.21" width="6.15" height="6.15"/>
    <rect class="cls-2" x="83.63" y="179.21" width="6.15" height="6.15"/>
    <rect class="cls-2" x="113.5" y="179.21" width="6.15" height="6.15"/>
    <rect class="cls-2" x="143.36" y="179.21" width="6.15" height="6.15"/>
    <rect class="cls-2" x="155.31" y="179.21" width="6.15" height="6.15"/>
    <rect class="cls-2" x="167.26" y="179.21" width="6.15" height="6.15"/>
    <path class="cls-2" d="m11.95,11.95v41.81h41.81V11.95H11.95Zm35.84,35.84h-29.87v-29.87h29.87v29.87Z"/>
    <path class="cls-2" d="m143.36,11.95v41.81h41.81V11.95h-41.81Zm35.84,35.84h-29.87v-29.87h29.87v29.87Z"/>
    <path class="cls-2" d="m11.95,143.36v41.81h41.81v-41.81H11.95Zm35.84,35.84h-29.87v-29.87h29.87v29.87Z"/>
    <rect class="cls-2" x="23.89" y="23.89" width="17.92" height="17.92"/>
    <rect class="cls-2" x="155.31" y="23.89" width="17.92" height="17.92"/>
    <rect class="cls-2" x="23.89" y="155.31" width="17.92" height="17.92"/>
  </g>
</svg>