<?xml version="1.0" encoding="UTF-8"?>
<svg id="Capa_1" data-name="Capa 1" xmlns="http://www.w3.org/2000/svg" viewBox="0 0 858.52 235.4">
  <defs>
    <style>
      .cls-1 {
        fill: #fff;
      }
    </style>
  </defs>
  <path class="cls-1" d="m407.37,153.64c4.07-7.55,9.65-13.95,15.48-20.17,3.62-3.86,7.03-7.92,10.41-11.98,1.79-2.15,2.45-4.77,1.96-7.56-.85-4.9-4.12-7.73-8.59-9.06-6.98-2.08-13.98-2.02-20.83.72-11.87,4.74-23.58,9.86-34.98,15.63-16.62,8.4-33.13,17.04-49.67,25.61-9.83,5.1-19.76,9.96-30.07,14.03-.44.17-.89.31-1.59.55.3-.34.39-.45.5-.56,4.98-4.82,9.95-9.67,14.96-14.46,3.59-3.43,7.11-6.92,9.63-11.26,3.91-6.74,3.21-13.61-2.03-19.36-2.64-2.9-5.78-5.17-9.28-6.91-7.94-3.96-16.45-5.92-25.18-6.99-9.46-1.16-18.92-.79-28.35.25-12.69,1.41-25.21,3.85-37.5,7.25-20.25,5.6-40.44,11.42-60.62,17.24-11.27,3.25-22.47,6.77-33.74,10.01-5.92,1.7-11.99,2.75-18.19,2.69-2.07-.02-4.14-.1-6.04-1.21,1.14-2.49,2.35-4.88,4.33-6.69,2.85-2.61,5.68-5.31,8.83-7.54,9.06-6.4,18.78-11.7,28.75-16.55,19.93-9.69,40.41-18.02,61.55-24.68,28.27-8.91,56.55-17.81,84.82-26.73,3.01-.95,6.07-1.79,8.8-3.5,4.94-3.09,6-9.32,2.15-13.7-2.82-3.22-6.54-4.7-10.79-4.93-3.35-.18-6.5.73-9.64,1.7-14.51,4.5-29.01,9.05-43.54,13.52-23.79,7.31-47.46,14.94-70.52,24.37-19.82,8.11-39.14,17.24-57.44,28.42-2.04,1.25-4.09,2.5-6.39,3.91.26-.56.38-.82.51-1.08,7.35-14.27,14.72-28.53,22.06-42.8,5.46-10.63,10.92-21.27,16.3-31.94,2.45-4.85,4.82-9.75,7-14.73,2.49-5.68.32-10.77-5.31-13.22-1.32-.58-2.59-1.29-3.88-1.94h-6.94c-.32.43-.55,1.02-.98,1.26-2.67,1.47-4.38,3.77-5.73,6.4-5.93,11.61-11.74,23.27-17.78,34.82-13.08,25.01-26.23,49.99-39.45,74.93-14.43,27.23-30.27,53.66-45.81,80.26-3.61,6.18-7.25,12.33-10.8,18.54-1.36,2.38-2.49,4.9-3.73,7.35v5.82c.33.53.65,1.08,1,1.6,1.8,2.74,4.3,4.29,7.61,4.4,8.03.27,14-3.16,18.03-10.05,13.53-23.17,27.05-46.34,40.57-69.51,1.36-2.33,2.72-4.67,4.12-7.05.67.76,1.22,1.47,1.86,2.08,5.77,5.56,12.82,8.37,20.67,9.11,10.01.95,19.92.11,29.59-2.63,16.63-4.72,33.21-9.58,49.79-14.47,13.18-3.89,26.28-8.05,39.5-11.81,11.04-3.14,22.26-5.59,33.59-7.48,8.36-1.39,16.78-2.15,25.24-2.71,6.85-.45,13.28.78,19.19,4.37,2.16,1.31,2.7,3.47,1.27,5.54-.95,1.37-1.97,2.77-3.22,3.84-3.31,2.85-6.72,5.57-10.15,8.26-8.35,6.53-16.65,13.1-23.85,20.94-2.05,2.23-3.35,4.75-3.33,7.82.03,5.86,2.79,10.09,7.9,12.78,5.16,2.72,10.73,3.22,16.43,2.54,5.8-.69,11.39-2.31,16.88-4.25,16.08-5.7,31.45-13.02,46.61-20.79,16.15-8.28,32.27-16.6,48.4-24.9.34-.18.7-.32,1.3-.58-1.01,1.63-1.89,3-2.73,4.39-4.68,7.77-7.7,16.11-8.37,25.21-.67,9.07,1.67,17.41,6.39,25.13,3.21,5.25,8.5,7.39,14.42,5.74,3.52-.98,6.59-2.69,8.34-6.08,1.85-3.58,1.34-7.18-.38-10.64-4.46-8.99-3.99-17.83.72-26.55Z"/>
  <path class="cls-1" d="m646.34,133.64c7.89-7.83,15.86-15.57,23.95-23.19,8-7.54,16.19-14.89,24.32-22.3.44-.4,1.06-.73,1.64-.83,1.1-.19,2.23-.19,3.34-.26,4.65-.32,9.31-.56,13.95-.99,7.65-.72,15.28-1.55,22.92-2.37,7.71-.82,15.45-1.46,23.13-2.57,10.8-1.56,21.58-3.33,32.33-5.26,18.64-3.35,37.16-7.25,55.57-11.68,3.02-.73,5.8-1.87,8.11-4.02,3.06-2.85,3.82-6.53,1.78-9.89-3.23-5.32-7.96-8.32-14.28-7.92-3.58.23-7.14,1.07-10.66,1.85-21.43,4.76-42.96,9.05-64.69,12.23-14.06,2.06-28.11,4.12-42.31,5.01-.86.05-1.72.08-2.8.13.38-.49.59-.75.78-1.02,1.86-2.52,3.78-5,5.54-7.58,1.4-2.04,1.85-4.39,1.42-6.84-.53-3.04-2.26-5.27-4.98-6.63-6.81-3.43-13.34-3.53-19.5,1.61-3.69,3.08-7.6,5.9-11.31,8.96-5.26,4.34-10.43,8.81-15.65,13.2-.43.36-1.03.69-1.56.72-2.49.12-5,.21-7.49.17-11.11-.17-22.23-.37-33.34-.59-5.89-.12-11.78-.3-17.67-.44-6.42-.15-10.9,2.99-12.54,8.77-1.27,4.48.46,8.62,4.5,10.52,1.51.71,3.09,1.45,4.71,1.7,4.01.6,8.06.96,12.1,1.34,2.85.27,5.71.41,8.57.61,0,.09,0,.18-.01.28-1.79.72-3.59,1.44-5.38,2.15-17.66,6.97-35.61,13.05-54.15,17.2-11.85,2.65-23.83,4.75-35.75,7.07-3.85.75-7.67,1.56-11.1,3.62-2.08,1.25-3.68,2.91-4.67,5.12-1.97,4.43-.88,9.83,2.63,13.19,1.44,1.37,1.47,1.98.15,3.44-.32.36-.65.72-1,1.06-9.15,9.23-19.75,16.28-31.81,21.16-11.95,4.83-24.26,7.21-37.18,5.46-3.4-.46-6.61-1.47-9.46-3.46-.95-.66-1.36-1.49-1.34-2.64.03-2.05.66-3.89,1.83-5.54,3.36-4.73,7.53-8.57,12.84-11.02,3.35-1.54,6.75-2.97,10.17-4.36,10.91-4.45,22.22-7.74,33.46-11.24,5.47-1.7,10.73-3.82,15.28-7.43,3.15-2.5,5.1-5.59,5.14-9.71.04-4.65-1.52-8.48-5.71-10.89-6.32-3.63-13.96-2.34-18.63,3.25-1.62,1.94-3.54,3.06-5.89,3.78-12.12,3.68-24.22,7.41-36.32,11.13-9.42,2.89-17.45,8.11-24.64,14.75-5.73,5.29-10.56,11.24-13.55,18.53-3.89,9.49-2.31,18.02,4.84,25.03,8.79,8.61,19.76,12.46,31.7,13.7,5.02.52,10.13.15,15.2.19,5.4.04,10.7-.66,15.97-1.82,12.06-2.65,23.18-7.62,33.8-13.8,9.67-5.62,18.59-12.16,25.88-20.75,3.77-4.44,6.76-9.28,7.63-15.17.22-1.5.27-3.02.4-4.59,24.92-3.91,48.92-11.12,72.59-19.62-.18.35-.38.61-.61.85-8.79,9.45-17.3,19.15-25.29,29.29-4.25,5.4-7.71,11.25-9.5,17.95-1.28,4.8-1.7,9.63-.07,14.43,2.15,6.32,6.81,10.03,12.91,12.22,6,2.16,12.25,2.46,18.52,2.56,10.37.15,20.63-.9,30.78-3.02,13.81-2.88,27.19-7.01,39.59-13.91,3.18-1.77,6.39-3.5,9.63-5.28.25.33.48.62.7.92,4.61,6.4,10.54,11.15,17.89,14.01,7.82,3.04,16,4.73,24.3,5.78,10.97,1.4,21.96,1.27,32.93-.01,13.35-1.57,26.27-5.02,38.86-9.61,8.26-3.01,15.68-7.54,21.55-14.19,6.79-7.69,8.11-16.6,4.38-25.97-2.82-7.08-8.54-11.63-15.32-14.81-4.46-2.09-9.33-2.82-14.1-3.83-15.02-3.17-30.3-4.54-45.49-6.5-4.99-.64-10-1.25-14.71-3.16-5.04-2.04-9.87-1.38-14.54,1.08-3.09,1.63-4.7,4.27-4.82,7.77-.05,1.37,0,2.75,0,3.84-1.89-.44-3.92-1.1-6-1.36-5.44-.68-10.42.49-14.1,4.81-4.37,5.13-9.49,9.37-14.81,13.42-14.06,10.68-29.77,18.04-46.63,23.07-9.89,2.95-19.94,4.77-30.32,4.01-1.38-.1-2.74-.38-4.2-.59,1.16-3.63,2.75-6.68,4.71-9.56,6.1-8.99,13.26-17.08,20.95-24.71Zm82.77,21.09c.72-1.89,1.88-3.45,3.22-4.92,2.45-2.71,4.83-5.48,7.33-8.14,2.66-2.83,3.23-6.09,2.4-9.74-.03-.14-.07-.29-.1-.43,0-.03.02-.07.08-.23.9.49,1.75.95,2.58,1.43,3.38,1.93,7.2,2.34,10.91,3.12,11.79,2.51,23.76,3.82,35.71,5.23,6.47.76,12.93,1.67,19.37,2.67,2.95.46,5.75,1.54,8.34,3.09,1.54.93,1.65,1.29.71,2.83-2.77,4.56-6.43,8.02-11.54,9.93-9.74,3.66-19.69,6.52-30.06,7.49-12.55,1.17-25.1,1.1-37.53-1.45-3.54-.73-6.83-2.1-9.7-4.36-2.35-1.85-2.8-3.7-1.73-6.5Z"/>
  <path class="cls-1" d="m393.64,93.92c4.75,2.74,9.91,4.31,15.36,4.74,8.56.68,16.98-.32,25.2-2.76,12.39-3.68,23.97-9.2,35.24-15.45,5.35-2.97,10.65-5.99,15.28-10.06,3.69-3.25,4.26-7.56,1.41-11.57-3.73-5.24-11.12-7.79-17.22-5.58-6.29,2.27-12.26,5.27-17.45,9.59-5.58,4.65-11.61,8.61-18.15,11.77-5.28,2.55-10.64,4.92-16.59,5.37-1.68.13-3.45,0-5.09-.39-2.46-.58-3.16-2.99-1.59-4.96.5-.63,1.11-1.23,1.77-1.68,1.57-1.07,3.13-2.2,4.82-3.03,7.53-3.7,15.19-7.08,23.35-9.18,1.06-.27,2.15-.46,3.22-.69.03.1.05.21.08.31-.27.2-.53.4-.81.59-.78.53-1.21,1.25-1,2.19.23,1,1.05,1.3,1.97,1.33,2.58.08,4.86-.68,6.7-2.53,1.36-1.38,1.78-3.05,1.43-4.94-.48-2.59-2.24-4.12-4.44-5.26-6.18-3.2-12.72-3.72-19.48-2.6-10.25,1.69-19.68,5.53-28.58,10.8-4.12,2.44-7.75,5.43-10.54,9.36-6.06,8.53-3.82,19.49,5.1,24.64Z"/>
</svg>